<svg fill="none" height="154" viewBox="0 0 543 154" width="543" xmlns="http://www.w3.org/2000/svg"><g fill="#171717"><path d="m1.83999 57v-50.58901h33.87201v9.56301h-22.484v10.585h20.002v9.563h-20.002v20.878z"/><path d="m40.4901 38.093c0-3.4067.511-6.3753 1.533-8.906 1.0706-2.5793 2.4576-4.7207 4.161-6.424 1.7033-1.7033 3.65-2.993 5.84-3.869 2.2386-.876 4.526-1.314 6.862-1.314 5.4506 0 9.7576 1.679 12.921 5.037 3.1633 3.3093 4.745 8.2003 4.745 14.673 0 .6327-.0244 1.3383-.073 2.117-.0487.73-.0974 1.387-.146 1.971h-24.674c.2433 2.2387 1.2896 4.015 3.139 5.329 1.8493 1.314 4.3313 1.971 7.446 1.971 1.9953 0 3.942-.1703 5.84-.511 1.9466-.3893 3.5283-.8517 4.745-1.387l1.46 8.833c-.584.292-1.3627.584-2.336.876-.9734.292-2.0684.5353-3.285.73-1.168.2433-2.4334.438-3.796.584-1.3627.146-2.7254.219-4.088.219-3.4554 0-6.4727-.511-9.052-1.533-2.5307-1.022-4.6477-2.409-6.351-4.161-1.6547-1.8007-2.8957-3.9177-3.723-6.351-.7787-2.4333-1.168-5.0613-1.168-7.884zm25.55-4.161c-.0487-.9247-.219-1.825-.511-2.701-.2434-.876-.657-1.6547-1.241-2.336-.5354-.6813-1.241-1.241-2.117-1.679-.8274-.438-1.8737-.657-3.139-.657-1.2167 0-2.263.219-3.139.657-.876.3893-1.606.9247-2.19 1.606s-1.0464 1.4843-1.387 2.409c-.292.876-.511 1.7763-.657 2.701z"/><path d="m94.2169 37.509c0 3.358.7544 6.059 2.263 8.103 1.5087 2.044 3.7471 3.066 6.7161 3.066.973 0 1.874-.0243 2.701-.073.827-.0973 1.509-.1947 2.044-.292v-19.783c-.681-.438-1.582-.803-2.701-1.095-1.071-.292-2.166-.438-3.285-.438-5.1587 0-7.7381 3.504-7.7381 10.512zm24.6011 18.25c-.973.292-2.093.584-3.358.876-1.265.2433-2.604.4623-4.015.657-1.363.1947-2.774.3407-4.234.438-1.411.146-2.774.219-4.088.219-3.1634 0-5.9861-.4623-8.4681-1.387s-4.5746-2.2387-6.278-3.942c-1.7033-1.752-3.0173-3.8447-3.942-6.278-.876-2.482-1.314-5.256-1.314-8.322 0-3.1147.3894-5.913 1.168-8.395.7787-2.5307 1.898-4.672 3.358-6.424s3.2364-3.0903 5.329-4.015c2.1414-.9247 4.5747-1.387 7.3001-1.387 1.509 0 2.847.146 4.015.438 1.217.292 2.433.7057 3.65 1.241v-17.37401l10.877-1.752z"/><path d="m127.178 38.093c0-3.4067.511-6.3753 1.533-8.906 1.07-2.5793 2.457-4.7207 4.161-6.424 1.703-1.7033 3.65-2.993 5.84-3.869 2.238-.876 4.526-1.314 6.862-1.314 5.45 0 9.757 1.679 12.921 5.037 3.163 3.3093 4.745 8.2003 4.745 14.673 0 .6327-.025 1.3383-.073 2.117-.049.73-.098 1.387-.146 1.971h-24.674c.243 2.2387 1.289 4.015 3.139 5.329 1.849 1.314 4.331 1.971 7.446 1.971 1.995 0 3.942-.1703 5.84-.511 1.946-.3893 3.528-.8517 4.745-1.387l1.46 8.833c-.584.292-1.363.584-2.336.876-.974.292-2.069.5353-3.285.73-1.168.2433-2.434.438-3.796.584-1.363.146-2.726.219-4.088.219-3.456 0-6.473-.511-9.052-1.533-2.531-1.022-4.648-2.409-6.351-4.161-1.655-1.8007-2.896-3.9177-3.723-6.351-.779-2.4333-1.168-5.0613-1.168-7.884zm25.55-4.161c-.049-.9247-.219-1.825-.511-2.701-.244-.876-.657-1.6547-1.241-2.336-.536-.6813-1.241-1.241-2.117-1.679-.828-.438-1.874-.657-3.139-.657-1.217 0-2.263.219-3.139.657-.876.3893-1.606.9247-2.19 1.606s-1.047 1.4843-1.387 2.409c-.292.876-.511 1.7763-.657 2.701z"/><path d="m194.774 28.238c-.973-.2433-2.117-.4867-3.431-.73-1.314-.292-2.725-.438-4.234-.438-.681 0-1.508.073-2.482.219-.924.0973-1.63.219-2.117.365v29.346h-10.877v-36.354c1.947-.6813 4.234-1.314 6.862-1.898 2.677-.6327 5.646-.949 8.906-.949.584 0 1.29.0487 2.117.146.828.0487 1.655.146 2.482.292.828.0973 1.655.2433 2.482.438.828.146 1.533.3407 2.117.584z"/><path d="m213.307 57h-10.877v-38.398h10.877zm1.022-49.49401c0 1.99533-.657 3.57701-1.971 4.74501-1.265 1.1193-2.774 1.679-4.526 1.679s-3.285-.5597-4.599-1.679c-1.265-1.168-1.898-2.74968-1.898-4.74501s.633-3.55267 1.898-4.672c1.314-1.168 2.847-1.752 4.599-1.752s3.261.584 4.526 1.752c1.314 1.11933 1.971 2.67667 1.971 4.672z"/><path d="m221.707 37.801c0-2.774.438-5.3777 1.314-7.811.925-2.482 2.239-4.6233 3.942-6.424 1.703-1.8493 3.772-3.3093 6.205-4.38s5.207-1.606 8.322-1.606c2.044 0 3.918.1947 5.621.584 1.703.3407 3.358.8517 4.964 1.533l-2.263 8.687c-1.022-.3893-2.141-.73-3.358-1.022s-2.579-.438-4.088-.438c-3.212 0-5.621.9977-7.227 2.993-1.557 1.9953-2.336 4.6233-2.336 7.884 0 3.4553.73 6.132 2.19 8.03 1.509 1.898 4.112 2.847 7.811 2.847 1.314 0 2.725-.1217 4.234-.365s2.896-.6327 4.161-1.168l1.533 8.906c-1.265.5353-2.847.9977-4.745 1.387s-3.991.584-6.278.584c-3.504 0-6.521-.511-9.052-1.533-2.531-1.0707-4.623-2.5063-6.278-4.307-1.606-1.8007-2.798-3.9177-3.577-6.351-.73-2.482-1.095-5.1587-1.095-8.03z"/><path d="m294.094 37.728c0 3.0173-.438 5.7913-1.314 8.322-.876 2.482-2.141 4.6233-3.796 6.424-1.654 1.752-3.65 3.1147-5.986 4.088-2.287.9733-4.866 1.46-7.738 1.46-2.822 0-5.402-.4867-7.738-1.46-2.287-.9733-4.258-2.336-5.913-4.088-1.654-1.8007-2.944-3.942-3.869-6.424-.924-2.5307-1.387-5.3047-1.387-8.322s.463-5.767 1.387-8.249c.974-2.482 2.288-4.599 3.942-6.351 1.704-1.752 3.699-3.1147 5.986-4.088 2.336-.9733 4.867-1.46 7.592-1.46 2.774 0 5.305.4867 7.592 1.46 2.336.9733 4.332 2.336 5.986 4.088 1.655 1.752 2.945 3.869 3.869 6.351.925 2.482 1.387 5.2317 1.387 8.249zm-11.096 0c0-3.358-.681-5.986-2.044-7.884-1.314-1.9467-3.212-2.92-5.694-2.92s-4.404.9733-5.767 2.92c-1.362 1.898-2.044 4.526-2.044 7.884s.682 6.0347 2.044 8.03c1.363 1.9467 3.285 2.92 5.767 2.92s4.38-.9733 5.694-2.92c1.363-1.9953 2.044-4.672 2.044-8.03z"/><path d="m330.35 31.669c0 2.482.292 4.7207.876 6.716.633 1.9953 1.509 3.723 2.628 5.183 1.168 1.4113 2.58 2.5063 4.234 3.285 1.655.7787 3.553 1.168 5.694 1.168 2.093 0 3.967-.3893 5.621-1.168 1.704-.7787 3.115-1.8737 4.234-3.285 1.168-1.46 2.044-3.1877 2.628-5.183.633-1.9953.949-4.234.949-6.716s-.316-4.7207-.949-6.716c-.584-2.044-1.46-3.7717-2.628-5.183-1.119-1.46-2.53-2.5793-4.234-3.358-1.654-.7787-3.528-1.168-5.621-1.168-2.141 0-4.039.4137-5.694 1.241-1.654.7787-3.066 1.898-4.234 3.358-1.119 1.4113-1.995 3.139-2.628 5.183-.584 1.9953-.876 4.2097-.876 6.643zm38.617 0c0 4.3313-.657 8.1517-1.971 11.461-1.265 3.2607-3.017 6.0103-5.256 8.249-2.238 2.19-4.915 3.8447-8.03 4.964-3.066 1.1193-6.375 1.679-9.928 1.679-3.455 0-6.716-.5597-9.782-1.679s-5.742-2.774-8.03-4.964c-2.287-2.2387-4.088-4.9883-5.402-8.249-1.314-3.3093-1.971-7.1297-1.971-11.461s.682-8.1273 2.044-11.388c1.363-3.3093 3.188-6.0833 5.475-8.322 2.336-2.23868 5.013-3.91768 8.03-5.03701 3.066-1.11934 6.278-1.679 9.636-1.679 3.456 0 6.716.55966 9.782 1.679 3.066 1.11933 5.743 2.79833 8.03 5.03701 2.288 2.2387 4.088 5.0127 5.402 8.322 1.314 3.2607 1.971 7.0567 1.971 11.388z"/><path d="m400.871 28.238c-.973-.2433-2.117-.4867-3.431-.73-1.314-.292-2.725-.438-4.234-.438-.681 0-1.509.073-2.482.219-.925.0973-1.63.219-2.117.365v29.346h-10.877v-36.354c1.947-.6813 4.234-1.314 6.862-1.898 2.677-.6327 5.645-.949 8.906-.949.584 0 1.29.0487 2.117.146.827.0487 1.655.146 2.482.292.827.0973 1.655.2433 2.482.438.827.146 1.533.3407 2.117.584z"/><path d="m405.989 38.093c0-3.4067.511-6.3753 1.533-8.906 1.071-2.5793 2.458-4.7207 4.161-6.424s3.65-2.993 5.84-3.869c2.239-.876 4.526-1.314 6.862-1.314 5.451 0 9.758 1.679 12.921 5.037 3.163 3.3093 4.745 8.2003 4.745 14.673 0 .6327-.024 1.3383-.073 2.117-.049.73-.097 1.387-.146 1.971h-24.674c.243 2.2387 1.29 4.015 3.139 5.329s4.331 1.971 7.446 1.971c1.995 0 3.942-.1703 5.84-.511 1.947-.3893 3.528-.8517 4.745-1.387l1.46 8.833c-.584.292-1.363.584-2.336.876s-2.068.5353-3.285.73c-1.168.2433-2.433.438-3.796.584s-2.725.219-4.088.219c-3.455 0-6.473-.511-9.052-1.533-2.531-1.022-4.648-2.409-6.351-4.161-1.655-1.8007-2.896-3.9177-3.723-6.351-.779-2.4333-1.168-5.0613-1.168-7.884zm25.55-4.161c-.049-.9247-.219-1.825-.511-2.701-.243-.876-.657-1.6547-1.241-2.336-.535-.6813-1.241-1.241-2.117-1.679-.827-.438-1.874-.657-3.139-.657-1.217 0-2.263.219-3.139.657-.876.3893-1.606.9247-2.19 1.606s-1.046 1.4843-1.387 2.409c-.292.876-.511 1.7763-.657 2.701z"/><path d="m450.445 19.916c1.849-.5353 4.234-1.022 7.154-1.46 2.92-.4867 5.986-.73 9.198-.73 3.261 0 5.962.438 8.103 1.314 2.19.8273 3.918 2.0197 5.183 3.577s2.166 3.4067 2.701 5.548.803 4.526.803 7.154v21.681h-10.877v-20.367c0-3.504-.462-5.986-1.387-7.446s-2.652-2.19-5.183-2.19c-.779 0-1.606.0487-2.482.146-.876.0487-1.655.1217-2.336.219v29.638h-10.877z"/><path d="m493.067 9.03899 10.877-1.752v11.31501h13.067v9.052h-13.067v13.505c0 2.2873.39 4.1123 1.168 5.475.828 1.3627 2.458 2.044 4.891 2.044 1.168 0 2.361-.0973 3.577-.292 1.266-.2433 2.409-.5597 3.431-.949l1.533 8.468c-1.314.5353-2.774.9977-4.38 1.387s-3.577.584-5.913.584c-2.968 0-5.426-.3893-7.373-1.168-1.946-.8273-3.504-1.9467-4.672-3.358-1.168-1.46-1.995-3.212-2.482-5.256-.438-2.044-.657-4.307-.657-6.789z"/><path d="m536.746 57h-10.877v-38.398h10.877zm1.022-49.49401c0 1.99533-.657 3.57701-1.971 4.74501-1.266 1.1193-2.774 1.679-4.526 1.679s-3.285-.5597-4.599-1.679c-1.266-1.168-1.898-2.74968-1.898-4.74501s.632-3.55267 1.898-4.672c1.314-1.168 2.847-1.752 4.599-1.752s3.26.584 4.526 1.752c1.314 1.11933 1.971 2.67667 1.971 4.672z"/><path d="m33.584 116.384h4.896v22.248c-.912.384-2.712.864-5.4 1.44-2.64.624-5.904.936-9.792.936-3.264 0-6.288-.576-9.072-1.728s-5.20801-2.808-7.27201-4.968c-2.016-2.208-3.6-4.92-4.752-8.136-1.152-3.264-1.728001-6.984-1.728001-11.16s.624001-7.872 1.872001-11.088c1.248-3.264 2.928-5.976 5.04-8.136 2.16-2.208 4.65601-3.888 7.48801-5.04s5.856-1.728 9.072-1.728c3.696 0 6.744.408 9.144 1.224 2.4.768 4.152 1.512 5.256 2.232l-1.656 4.176c-1.344-.96-3.168-1.728-5.472-2.304-2.304-.624-4.8-.936-7.488-.936-2.496 0-4.848.456-7.056 1.368s-4.128 2.28-5.76 4.104c-1.63201 1.824-2.92801 4.08-3.88801 6.768-.912 2.688-1.368 5.808-1.368 9.36 0 3.312.384 6.312 1.152 9 .768 2.64 1.92 4.92 3.45601 6.84 1.584 1.872 3.528 3.312 5.832 4.32s4.968 1.512 7.992 1.512c2.448 0 4.488-.12 6.12-.36 1.68-.288 2.808-.552 3.384-.792z"/><path d="m62.2546 102.056c1.536 0 2.976.12 4.32.36 1.392.24 2.352.48 2.88.72l-.936 4.032c-.384-.192-1.176-.384-2.376-.576-1.152-.24-2.688-.36-4.608-.36-2.016 0-3.648.144-4.896.432-1.2.288-1.992.528-2.376.72v32.616h-4.68v-35.496c1.2-.528 2.856-1.056 4.968-1.584 2.112-.576 4.68-.864 7.704-.864z"/><path d="m88.2483 136.616c1.824 0 3.408-.048 4.752-.144 1.392-.144 2.568-.312 3.528-.504v-13.104c-.528-.24-1.368-.48-2.52-.72-1.152-.288-2.736-.432-4.752-.432-1.152 0-2.352.096-3.6.288-1.248.144-2.4.504-3.456 1.08-1.056.528-1.92 1.272-2.592 2.232s-1.008 2.232-1.008 3.816c0 1.392.216 2.568.648 3.528.48.96 1.128 1.728 1.944 2.304.864.576 1.872 1.008 3.024 1.296 1.2.24 2.544.36 4.032.36zm-.432-34.704c2.448 0 4.512.36 6.192 1.08 1.728.672 3.12 1.632 4.176 2.88 1.056 1.2 1.8237 2.64 2.3037 4.32s.72 3.504.72 5.472v23.472c-.48.144-1.176.312-2.0877.504-.912.144-1.968.312-3.168.504s-2.544.336-4.032.432c-1.44.144-2.928.216-4.464.216-1.968 0-3.792-.216-5.472-.648-1.632-.432-3.072-1.104-4.32-2.016-1.2-.96-2.16-2.16-2.88-3.6-.672-1.488-1.008-3.288-1.008-5.4 0-2.016.384-3.744 1.152-5.184s1.848-2.616 3.24-3.528c1.392-.96 3.048-1.656 4.968-2.088s4.008-.648 6.264-.648c.672 0 1.368.048 2.088.144.768.048 1.488.144 2.16.288.72.096 1.32.216 1.8.36.528.096.888.192 1.08.288v-2.304c0-1.296-.096-2.544-.288-3.744-.192-1.248-.624-2.352-1.296-3.312-.624-1.008-1.536-1.8-2.736-2.376-1.152-.624-2.688-.936-4.608-.936-2.736 0-4.776.192-6.12.576s-2.328.696-2.952.936l-.648-4.104c.816-.384 2.064-.744 3.744-1.08 1.728-.336 3.792-.504 6.192-.504z"/><path d="m117.825 133.304c.432.336.96.696 1.584 1.08.672.384 1.44.744 2.304 1.08s1.8.624 2.808.864c1.008.192 2.064.288 3.168.288 2.304 0 4.224-.384 5.76-1.152 1.584-.816 2.856-1.896 3.816-3.24.96-1.392 1.656-3 2.088-4.824.432-1.872.648-3.84.648-5.904 0-4.896-1.224-8.64-3.672-11.232-2.448-2.64-5.688-3.96-9.72-3.96-2.304 0-4.176.12-5.616.36-1.392.192-2.448.408-3.168.648zm0 20.016h-4.68v-49.248c1.392-.48 3.168-.936 5.328-1.368s4.896-.648 8.208-.648c2.736 0 5.208.456 7.416 1.368 2.256.864 4.176 2.136 5.76 3.816 1.632 1.68 2.88 3.72 3.744 6.12.912 2.4 1.368 5.112 1.368 8.136 0 2.832-.384 5.448-1.152 7.848-.72 2.352-1.8 4.392-3.24 6.12-1.44 1.68-3.216 3-5.328 3.96-2.064.96-4.44 1.44-7.128 1.44-2.448 0-4.584-.336-6.408-1.008-1.776-.72-3.072-1.392-3.888-2.016z"/><path d="m155.122 140v-55.008l4.68-.864v19.728c1.536-.576 3.096-1.008 4.68-1.296 1.584-.336 3.168-.504 4.752-.504 2.88 0 5.28.408 7.2 1.224s3.456 1.992 4.608 3.528c1.152 1.488 1.944 3.288 2.376 5.4.48 2.112.72 4.44.72 6.984v20.808h-4.68v-19.296c0-2.64-.192-4.872-.576-6.696-.336-1.824-.936-3.312-1.8-4.464-.816-1.152-1.92-1.968-3.312-2.448-1.392-.528-3.144-.792-5.256-.792-.816 0-1.704.072-2.664.216-.912.144-1.776.312-2.592.504-.816.144-1.56.312-2.232.504-.624.192-1.032.336-1.224.432v32.04z"/><path d="m200.794 140h-4.68v-37.224h4.68zm1.08-48.456c0 1.104-.336 1.992-1.008 2.664-.672.624-1.488.936-2.448.936s-1.776-.312-2.448-.936c-.672-.672-1.008-1.56-1.008-2.664s.336-1.968 1.008-2.592c.672-.672 1.488-1.008 2.448-1.008s1.776.336 2.448 1.008c.672.624 1.008 1.488 1.008 2.592z"/><path d="m228.608 140.792c-2.88 0-5.424-.456-7.632-1.368s-4.056-2.208-5.544-3.888c-1.44-1.728-2.544-3.768-3.312-6.12-.768-2.4-1.152-5.04-1.152-7.92 0-2.928.384-5.592 1.152-7.992.816-2.4 1.968-4.464 3.456-6.192s3.288-3.048 5.4-3.96c2.112-.96 4.488-1.44 7.128-1.44 2.016 0 3.888.168 5.616.504 1.776.336 3.144.768 4.104 1.296l-1.224 4.032c-.96-.48-2.04-.864-3.24-1.152s-2.808-.432-4.824-.432c-4.128 0-7.272 1.344-9.432 4.032-2.112 2.64-3.168 6.408-3.168 11.304 0 2.208.24 4.248.72 6.12.48 1.824 1.248 3.408 2.304 4.752 1.104 1.296 2.496 2.328 4.176 3.096 1.728.72 3.816 1.08 6.264 1.08 2.016 0 3.696-.216 5.04-.648 1.392-.48 2.4-.888 3.024-1.224l1.008 4.032c-.864.48-2.232.936-4.104 1.368-1.824.48-3.744.72-5.76.72z"/><path d="m302.588 115.016c0 4.272-.672 7.992-2.016 11.16s-3.24 5.808-5.688 7.92c-2.4 2.112-5.28 3.696-8.64 4.752s-7.056 1.584-11.088 1.584c-2.016 0-4.128-.12-6.336-.36-2.208-.192-4.152-.504-5.832-.936v-48.096c1.68-.48 3.624-.816 5.832-1.008 2.208-.24 4.32-.36 6.336-.36 4.032 0 7.728.528 11.088 1.584s6.24 2.64 8.64 4.752c2.448 2.112 4.344 4.752 5.688 7.92s2.016 6.864 2.016 11.088zm-34.704 20.664c.288.048 1.008.144 2.16.288 1.2.144 3.096.216 5.688.216 3.6 0 6.744-.48 9.432-1.44 2.688-1.008 4.944-2.424 6.768-4.248s3.192-4.032 4.104-6.624c.912-2.64 1.368-5.592 1.368-8.856s-.456-6.192-1.368-8.784-2.28-4.8-4.104-6.624-4.08-3.216-6.768-4.176c-2.688-1.008-5.832-1.512-9.432-1.512-2.592 0-4.488.072-5.688.216-1.152.144-1.872.24-2.16.288z"/><path d="m311.022 121.352c0-3.264.457-6.096 1.369-8.496.96-2.448 2.184-4.488 3.671-6.12 1.537-1.632 3.264-2.832 5.184-3.6 1.968-.816 3.984-1.224 6.048-1.224 4.56 0 8.185 1.488 10.873 4.464 2.736 2.976 4.103 7.56 4.103 13.752 0 .384-.024.768-.072 1.152 0 .384-.024.744-.072 1.08h-26.136c.144 4.56 1.272 8.064 3.384 10.512s5.472 3.672 10.08 3.672c2.544 0 4.561-.24 6.049-.72s2.567-.888 3.239-1.224l.864 4.032c-.672.384-1.944.84-3.816 1.368-1.824.528-3.984.792-6.48.792-3.264 0-6.048-.48-8.352-1.44s-4.2-2.304-5.688-4.032-2.568-3.768-3.24-6.12c-.672-2.4-1.008-5.016-1.008-7.848zm26.425-2.952c-.096-3.888-1.009-6.912-2.737-9.072s-4.176-3.24-7.344-3.24c-1.68 0-3.192.336-4.536 1.008-1.296.672-2.448 1.584-3.456 2.736-.96 1.104-1.728 2.4-2.304 3.888-.528 1.488-.84 3.048-.936 4.68z"/><path d="m360.332 136.688c2.688 0 4.896-.432 6.624-1.296 1.776-.912 2.664-2.424 2.664-4.536 0-1.008-.168-1.872-.504-2.592-.288-.72-.792-1.368-1.512-1.944s-1.68-1.128-2.88-1.656c-1.152-.528-2.592-1.152-4.32-1.872-1.392-.576-2.712-1.152-3.96-1.728-1.248-.624-2.352-1.32-3.312-2.088-.96-.816-1.728-1.776-2.304-2.88s-.864-2.448-.864-4.032c0-3.024 1.128-5.472 3.384-7.344 2.304-1.872 5.448-2.808 9.432-2.808 2.544 0 4.632.216 6.264.648 1.68.432 2.856.816 3.528 1.152l-1.08 4.176c-.576-.288-1.56-.672-2.952-1.152-1.344-.48-3.336-.72-5.976-.72-1.056 0-2.064.12-3.024.36-.912.192-1.728.528-2.448 1.008-.72.432-1.296 1.008-1.728 1.728-.432.672-.648 1.512-.648 2.52s.192 1.872.576 2.592.936 1.368 1.656 1.944c.768.528 1.68 1.032 2.736 1.512 1.104.48 2.352 1.008 3.744 1.584 1.44.576 2.808 1.176 4.104 1.8 1.344.576 2.52 1.296 3.528 2.16 1.008.816 1.824 1.824 2.448 3.024.624 1.152.936 2.616.936 4.392 0 3.36-1.272 5.904-3.816 7.632-2.496 1.728-5.928 2.592-10.296 2.592-3.264 0-5.76-.288-7.488-.864-1.728-.528-2.88-.936-3.456-1.224l1.224-4.248c.144.096.456.264.936.504.48.192 1.128.432 1.944.72.816.24 1.776.456 2.88.648 1.152.192 2.472.288 3.96.288z"/><path d="m388.177 140h-4.68v-37.224h4.68zm1.08-48.456c0 1.104-.336 1.992-1.008 2.664-.672.624-1.488.936-2.448.936s-1.776-.312-2.448-.936c-.672-.672-1.008-1.56-1.008-2.664s.336-1.968 1.008-2.592c.672-.672 1.488-1.008 2.448-1.008s1.776.336 2.448 1.008c.672.624 1.008 1.488 1.008 2.592z"/><path d="m424.847 135.68c-.288.24-.72.528-1.296.864-.576.288-1.296.6-2.16.936-.816.336-1.776.624-2.88.864-1.056.192-2.256.288-3.6.288-2.16 0-4.248-.336-6.264-1.008s-3.792-1.728-5.328-3.168c-1.488-1.44-2.688-3.288-3.6-5.544-.912-2.304-1.368-5.088-1.368-8.352 0-2.64.408-5.088 1.224-7.344s1.968-4.2 3.456-5.832c1.536-1.68 3.384-2.976 5.544-3.888 2.208-.96 4.68-1.44 7.416-1.44 3.456 0 6.216.24 8.28.72 2.112.432 3.84.864 5.184 1.296v33.984c0 5.568-1.44 9.528-4.32 11.88-2.88 2.4-7.224 3.6-13.032 3.6-2.4 0-4.584-.192-6.552-.576-1.92-.336-3.576-.744-4.968-1.224l.936-4.248c1.152.528 2.712.984 4.68 1.368 2.016.384 4.032.576 6.048.576 4.416 0 7.608-.864 9.576-2.592 2.016-1.68 3.024-4.584 3.024-8.712zm-.072-28.368c-.816-.24-1.872-.456-3.168-.648-1.296-.24-3.144-.36-5.544-.36-2.016 0-3.816.36-5.4 1.08-1.536.672-2.856 1.656-3.96 2.952-1.104 1.248-1.944 2.76-2.52 4.536-.576 1.728-.864 3.648-.864 5.76 0 2.448.336 4.56 1.008 6.336.672 1.728 1.536 3.144 2.592 4.248 1.104 1.104 2.352 1.92 3.744 2.448 1.392.48 2.808.72 4.248.72 2.112 0 4.032-.312 5.76-.936 1.776-.624 3.144-1.344 4.104-2.16z"/><path d="m441.856 104.072c1.392-.384 3.264-.816 5.616-1.296s5.232-.72 8.64-.72c2.832 0 5.184.408 7.056 1.224 1.92.816 3.432 1.992 4.536 3.528 1.152 1.488 1.968 3.288 2.448 5.4s.72 4.44.72 6.984v20.808h-4.68v-19.296c0-2.64-.192-4.872-.576-6.696-.336-1.824-.936-3.312-1.8-4.464-.816-1.152-1.92-1.968-3.312-2.448-1.344-.528-3.048-.792-5.112-.792-2.208 0-4.128.12-5.76.36-1.584.24-2.616.456-3.096.648v32.688h-4.68z"/><path d="m480.616 121.352c0-3.264.456-6.096 1.368-8.496.96-2.448 2.184-4.488 3.672-6.12 1.536-1.632 3.264-2.832 5.184-3.6 1.968-.816 3.984-1.224 6.048-1.224 4.56 0 8.184 1.488 10.872 4.464 2.736 2.976 4.104 7.56 4.104 13.752 0 .384-.024.768-.072 1.152 0 .384-.024.744-.072 1.08h-26.136c.144 4.56 1.272 8.064 3.384 10.512s5.472 3.672 10.08 3.672c2.544 0 4.56-.24 6.048-.72s2.568-.888 3.24-1.224l.864 4.032c-.672.384-1.944.84-3.816 1.368-1.824.528-3.984.792-6.48.792-3.264 0-6.048-.48-8.352-1.44s-4.2-2.304-5.688-4.032-2.568-3.768-3.24-6.12c-.672-2.4-1.008-5.016-1.008-7.848zm26.424-2.952c-.096-3.888-1.008-6.912-2.736-9.072s-4.176-3.24-7.344-3.24c-1.68 0-3.192.336-4.536 1.008-1.296.672-2.448 1.584-3.456 2.736-.96 1.104-1.728 2.4-2.304 3.888-.528 1.488-.84 3.048-.936 4.68z"/><path d="m534.966 102.056c1.536 0 2.976.12 4.32.36 1.392.24 2.352.48 2.88.72l-.936 4.032c-.384-.192-1.176-.384-2.376-.576-1.152-.24-2.688-.36-4.608-.36-2.016 0-3.648.144-4.896.432-1.2.288-1.992.528-2.376.72v32.616h-4.68v-35.496c1.2-.528 2.856-1.056 4.968-1.584 2.112-.576 4.68-.864 7.704-.864z"/></g></svg>